<svg width="512" height="512" viewBox="0 0 512 512" fill="none" xmlns="http://www.w3.org/2000/svg">
<g clip-path="url(#clip0_20_23)">
<path d="M1 282C1 265.646 1 249.292 1.36904 232.268C2.48004 226.245 3.21551 220.891 3.96507 215.538C7.45956 190.585 15.3777 166.956 26.3652 144.429C34.9834 126.759 45.7134 110.372 58.2233 95.0621C73.5867 76.26 91.1321 59.9423 110.949 46.0803C126.785 35.002 143.7 25.7697 161.733 18.6827C178.934 11.9227 196.569 6.75439 214.874 3.97704C220.927 3.05862 226.959 1.99645 233 1C248.688 1 264.375 1 280.736 1.37094C292.069 3.40026 302.823 4.61139 313.372 6.80701C337.827 11.8972 360.827 21.0078 382.598 33.2319C399.225 42.5674 414.907 53.3911 428.682 66.4915C439.789 77.0545 450.011 88.6522 459.799 100.475C475.763 119.758 487.603 141.549 496.482 164.952C502.748 181.467 507.711 198.314 510.105 215.872C510.842 221.279 512.023 226.626 513 232C513 248.354 513 264.708 512.631 281.732C511.52 287.755 510.784 293.11 510.035 298.462C506.54 323.415 498.622 347.044 487.635 369.571C479.017 387.241 468.287 403.628 455.777 418.938C440.413 437.74 422.868 454.058 403.051 467.92C387.215 478.998 370.3 488.23 352.267 495.317C335.066 502.077 317.431 507.246 299.126 510.023C293.073 510.941 287.041 512.004 281 513C265.312 513 249.625 513 233.264 512.629C221.931 510.6 211.177 509.389 200.628 507.193C176.173 502.103 153.173 492.992 131.402 480.768C114.775 471.433 99.0931 460.609 85.3179 447.509C74.2107 436.946 63.989 425.348 54.2009 413.525C38.2368 394.242 26.3974 372.451 17.518 349.048C11.2517 332.533 6.28943 315.686 3.89503 298.128C3.15765 292.721 1.97744 287.374 1 282ZM190.001 307.426C190.37 307.369 190.739 307.313 191.107 307.257C190.809 306.768 190.511 306.28 189.89 305.254C189.347 305.306 188.803 305.358 188.259 305.41C188.652 305.871 189.045 306.332 190.001 307.426ZM357.241 48.6662C320.466 64.0267 286.012 83.4171 254.78 108.264C216.738 138.527 185.309 174.292 164.277 218.536C161.865 223.609 159.861 228.875 157.68 234.022C149.282 231.81 141.15 229.667 133.018 227.525C132.892 227.906 132.766 228.287 132.64 228.668C164.08 240.088 193.816 255.002 222.083 272.52C237.594 238.558 259.898 209.802 281.394 180.58C265.332 214.8 249.269 249.019 233.219 283.211C276.657 310.344 295.053 350.441 298.805 398.741C299.592 398.443 299.947 398.39 300.199 398.2C301.394 397.296 302.577 396.375 303.735 395.424C328.36 375.196 345.839 349.77 358.019 320.537C373.354 283.729 379.279 245.03 380.617 205.486C382.082 162.171 377.787 119.314 369.519 76.8282C367.564 66.7787 365.171 56.8144 362.908 46.4866C360.714 47.2987 359.328 47.812 357.241 48.6662ZM141.345 421.164C161.947 446.544 207.993 473.945 228.137 471.889C225.468 470.802 223.882 470.125 222.276 469.505C181.345 453.7 151.278 426.23 133.023 386.174C120.467 358.619 115.13 329.441 114.172 299.367C113.87 289.862 114.125 280.339 114.125 270.824C109.606 292.577 108.051 314.429 110.028 336.451C112.794 367.258 121.655 395.84 141.345 421.164ZM259.529 469.062C260.045 472.161 260.561 475.259 261.055 478.227C265.706 472.312 269.896 466.566 274.567 461.242C276.506 459.032 276.962 457.309 275.906 454.676C267.977 434.919 260.918 414.768 252.084 395.428C238.248 365.135 220.328 337.306 197.522 312.824C196.501 311.728 195.47 310.634 194.371 309.618C193.402 308.723 192.33 307.939 191.304 307.105C190.984 307.358 190.664 307.611 190.343 307.864C228.819 354.731 249.668 409.101 259.529 469.062Z" fill="#90C531"/>
<path d="M357.591 48.4957C359.328 47.812 360.714 47.2987 362.908 46.4866C365.171 56.8144 367.564 66.7787 369.519 76.8282C377.787 119.314 382.082 162.171 380.617 205.486C379.279 245.03 373.354 283.729 358.019 320.537C345.839 349.77 328.36 375.196 303.735 395.424C302.577 396.375 301.394 397.296 300.199 398.2C299.947 398.39 299.592 398.443 298.805 398.741C295.053 350.441 276.657 310.344 233.219 283.211C249.269 249.019 265.332 214.8 281.394 180.58C259.898 209.802 237.594 238.558 222.083 272.52C193.816 255.002 164.08 240.088 132.64 228.668C132.766 228.287 132.892 227.906 133.018 227.525C141.15 229.667 149.282 231.81 157.68 234.022C159.861 228.875 161.865 223.609 164.277 218.536C185.309 174.292 216.738 138.527 254.78 108.264C286.012 83.4171 320.466 64.0267 357.591 48.4957ZM282.1 179.559C282.272 179.631 282.443 179.702 282.615 179.773C282.568 179.589 282.521 179.405 282.1 179.559Z" fill="#FFFFFE"/>
<path d="M141.129 420.882C121.655 395.84 112.794 367.258 110.028 336.451C108.051 314.429 109.606 292.577 114.125 270.824C114.125 280.339 113.87 289.862 114.172 299.367C115.13 329.441 120.467 358.619 133.023 386.174C151.278 426.23 181.345 453.7 222.276 469.505C223.882 470.125 225.468 470.802 228.137 471.889C207.993 473.946 161.947 446.544 141.129 420.882Z" fill="#FBFDF7"/>
<path d="M259.438 468.644C249.668 409.101 228.819 354.731 190.343 307.864C190.664 307.611 190.984 307.358 191.304 307.105C192.33 307.939 193.402 308.723 194.371 309.618C195.47 310.634 196.501 311.728 197.522 312.824C220.328 337.306 238.248 365.135 252.084 395.428C260.918 414.768 267.977 434.919 275.906 454.676C276.962 457.309 276.506 459.032 274.567 461.242C269.896 466.566 265.706 472.312 261.055 478.227C260.561 475.259 260.045 472.161 259.438 468.644Z" fill="#FCFDF9"/>
<path d="M189.438 306.794C189.045 306.332 188.652 305.871 188.259 305.41C188.803 305.358 189.347 305.306 189.857 305.773C189.696 306.459 189.567 306.626 189.438 306.794Z" fill="#FCFDF9"/>
<path d="M190.019 306.041C190.511 306.28 190.809 306.768 191.107 307.257C190.739 307.313 190.37 307.369 189.72 307.11C189.567 306.626 189.696 306.459 190.019 306.041Z" fill="#FCFDF9"/>
<path d="M282.287 179.391C282.521 179.405 282.568 179.589 282.615 179.773C282.443 179.702 282.272 179.631 282.287 179.391Z" fill="#90C531"/>
</g>
<defs>
<clipPath id="clip0_20_23">
<rect width="512" height="512" fill="white"/>
</clipPath>
</defs>
</svg>
